<?xml version="1.0" standalone="no"?>
<!DOCTYPE svg PUBLIC "-//W3C//DTD SVG 20010904//EN"
 "http://www.w3.org/TR/2001/REC-SVG-20010904/DTD/svg10.dtd">
<svg version="1.0" xmlns="http://www.w3.org/2000/svg"
 width="300.000000pt" height="300.000000pt" viewBox="0 0 300.000000 300.000000"
 preserveAspectRatio="xMidYMid meet">

<g transform="translate(0.000000,300.000000) scale(0.100000,-0.100000)"
fill="#000000" stroke="none">
<path d="M1440 1500 l0 -1500 780 0 780 0 0 1500 0 1500 -780 0 -780 0 0
-1500z m601 659 c11 -18 12 -1259 0 -1277 -10 -17 -79 -27 -125 -18 l-36 7 0
649 0 649 23 4 c42 10 129 1 138 -14z m520 0 c11 -18 12 -1259 0 -1277 -10
-17 -79 -27 -125 -18 l-36 7 0 649 0 649 23 4 c42 10 129 1 138 -14z"/>
<path d="M547 2156 c-8 -8 -46 -104 -85 -213 -341 -945 -380 -1058 -371 -1075
14 -26 131 -26 156 0 10 9 42 88 72 175 l53 157 268 0 c209 0 269 -3 273 -13
3 -7 28 -80 57 -162 29 -83 58 -156 63 -163 15 -19 157 -12 169 8 12 19 -434
1268 -459 1288 -24 18 -177 16 -196 -2z m203 -491 c57 -165 105 -306 108 -312
3 -10 -44 -13 -217 -13 -122 0 -221 3 -221 7 0 20 216 631 221 625 3 -4 52
-142 109 -307z"/>
</g>
</svg>
